<svg width="56" height="56" viewBox="0 0 56 56" fill="none" xmlns="http://www.w3.org/2000/svg">
<path fill-rule="evenodd" clip-rule="evenodd" d="M47.8405 8.13761C42.577 2.89261 35.5765 0.00266109 28.1176 0C12.7479 0 0.239316 12.4473 0.233968 27.7472C0.231294 32.6382 1.51612 37.4122 3.95607 41.6195L0 56L14.7814 52.1414C18.8538 54.3528 23.4396 55.517 28.1056 55.5184H28.1176C43.4846 55.5184 55.9947 43.0697 56 27.7698C56.0026 20.3548 53.1054 13.384 47.8405 8.13895V8.13761ZM28.1176 50.8322H28.1083C23.9503 50.8309 19.8713 49.7185 16.3123 47.6176L15.466 47.1174L6.69418 49.4071L9.0352 40.8956L8.48436 40.0228C6.16473 36.3506 4.93873 32.106 4.94141 27.7486C4.94676 15.0325 15.343 4.68618 28.1271 4.68618C34.3171 4.68884 40.1357 7.09049 44.5114 11.4507C48.8874 15.8096 51.2952 21.6055 51.2926 27.7672C51.2871 40.4846 40.891 50.8309 28.1176 50.8309V50.8322ZM40.8294 33.559C40.1329 33.2118 36.7077 31.5352 36.0685 31.3038C35.4295 31.0722 34.9656 30.9565 34.5016 31.651C34.0377 32.3456 32.7021 33.9077 32.2957 34.3693C31.8892 34.8323 31.4827 34.8896 30.7862 34.5422C30.0897 34.195 27.8449 33.4632 25.183 31.1014C23.1121 29.2626 21.7135 26.9928 21.3072 26.2982C20.9008 25.6037 21.2644 25.2285 21.612 24.8838C21.9248 24.5725 22.3085 24.0736 22.6574 23.6691C23.0065 23.2645 23.1215 22.9746 23.354 22.5128C23.5867 22.0498 23.4704 21.6454 23.2966 21.298C23.1227 20.9508 21.7297 17.5379 21.1481 16.1501C20.5825 14.7983 20.0077 14.982 19.5812 14.9593C19.1747 14.9394 18.7108 14.9354 18.2456 14.9354C17.7803 14.9354 17.0262 15.1084 16.3872 15.8029C15.7481 16.4974 13.9485 18.1752 13.9485 21.5867C13.9485 24.9983 16.4447 28.2968 16.7936 28.7598C17.1425 29.2228 21.7068 36.2255 28.6952 39.2298C30.3571 39.9443 31.6552 40.3714 32.6673 40.6908C34.3359 41.219 35.8546 41.1445 37.0552 40.9662C38.3936 40.7666 41.1771 39.2884 41.7573 37.6691C42.3376 36.0498 42.3376 34.6607 42.1638 34.3719C41.99 34.0832 41.5248 33.9089 40.8282 33.5617L40.8294 33.559Z" fill="#F8FAFC"/>
</svg>
